<svg width="766" height="664" viewBox="0 0 766 664" fill="none" xmlns="http://www.w3.org/2000/svg">
<path d="M685.514 663.812H80.4234C59.0938 663.812 38.6378 655.339 23.5555 640.257C8.47316 625.175 0 604.719 0 583.389V204.25H765.938V583.389C765.938 604.719 757.464 625.175 742.382 640.257C727.3 655.339 706.844 663.812 685.514 663.812ZM51.0625 255.312V583.389C51.0625 591.176 54.1559 598.644 59.6621 604.15C62.3885 606.877 65.6253 609.039 69.1875 610.515C72.7497 611.991 76.5677 612.75 80.4234 612.75H685.514C693.301 612.75 700.769 609.657 706.275 604.15C711.782 598.644 714.875 591.176 714.875 583.389V255.312H51.0625Z" fill="white"/>
<path d="M765.938 255.312H0V80.4234C0 59.0938 8.47316 38.6378 23.5555 23.5555C38.6378 8.47316 59.0938 0 80.4234 0H685.514C706.844 0 727.3 8.47316 742.382 23.5555C757.464 38.6378 765.938 59.0938 765.938 80.4234V255.312ZM51.0625 204.25H714.875V80.4234C714.875 72.6364 711.782 65.1684 706.275 59.6621C700.769 54.1559 693.301 51.0625 685.514 51.0625H80.4234C72.6364 51.0625 65.1684 54.1559 59.6621 59.6621C54.1559 65.1684 51.0625 72.6364 51.0625 80.4234V204.25Z" fill="white"/>
<path d="M398.002 14.0358L327.516 221.444L375.863 237.874L446.349 30.4662L398.002 14.0358Z" fill="white"/>
<path d="M594.752 13.9787L524.302 221.399L572.652 237.821L643.102 30.4007L594.752 13.9787Z" fill="white"/>
<path d="M193.204 14.1362L122.717 221.544L171.064 237.975L241.551 30.5666L193.204 14.1362Z" fill="white"/>
<path d="M25.5312 229.781V583.389C25.5313 597.947 31.3145 611.909 41.6088 622.204C51.9031 632.498 65.8651 638.281 80.4234 638.281H685.514C700.072 638.281 714.034 632.498 724.329 622.204C734.623 611.909 740.406 597.947 740.406 583.389V229.781H25.5312ZM479.477 434.031L340.587 524.412C340.167 524.685 339.682 524.841 339.181 524.864C338.681 524.887 338.183 524.775 337.74 524.54C337.298 524.306 336.926 523.957 336.663 523.531C336.4 523.104 336.256 522.615 336.247 522.114V343.395C336.256 342.894 336.4 342.405 336.663 341.979C336.926 341.552 337.298 341.203 337.74 340.969C338.183 340.734 338.681 340.623 339.181 340.645C339.682 340.668 340.167 340.824 340.587 341.097L479.477 430.712C479.755 430.975 479.977 431.291 480.128 431.642C480.28 431.994 480.358 432.372 480.358 432.755C480.358 433.137 480.28 433.516 480.128 433.867C479.977 434.218 479.755 434.535 479.477 434.797V434.031Z" fill="white"/>
</svg>
